<?xml version="1.0" standalone="no"?>
<!DOCTYPE svg PUBLIC "-//W3C//DTD SVG 20010904//EN"
 "http://www.w3.org/TR/2001/REC-SVG-20010904/DTD/svg10.dtd">
<svg version="1.0" xmlns="http://www.w3.org/2000/svg"
 width="100.000000pt" height="100.000000pt" viewBox="0 0 100.000000 100.000000"
 preserveAspectRatio="xMidYMid meet">

<g transform="translate(0.000000,100.000000) scale(0.100000,-0.100000)"
fill="#000000" stroke="none">
<path d="M463 950 c-41 -9 -78 -34 -99 -65 -13 -19 -21 -23 -45 -18 -40 8
-113 -21 -143 -57 -31 -37 -50 -94 -43 -129 5 -23 0 -32 -23 -50 -84 -61 -84
-201 0 -262 23 -18 28 -27 23 -50 -7 -35 12 -92 43 -129 30 -35 103 -65 142
-57 24 5 33 1 51 -23 61 -84 201 -84 262 0 18 24 27 28 51 23 39 -8 112 22
142 57 31 37 50 94 43 129 -5 23 0 32 23 50 41 29 61 73 62 130 0 57 -21 102
-62 132 -23 18 -28 27 -23 50 7 35 -12 92 -43 129 -30 35 -103 65 -142 57 -24
-5 -33 -1 -51 23 -36 50 -105 74 -168 60z m247 -334 c0 -13 -261 -276 -275
-276 -14 0 -145 132 -145 146 0 6 6 16 13 22 10 9 26 -1 67 -43 30 -30 59 -55
65 -55 6 0 64 54 130 120 91 92 122 117 132 108 7 -6 13 -15 13 -22z"/>
</g>
</svg>
