<svg xmlns="http://www.w3.org/2000/svg" xmlns:xlink="http://www.w3.org/1999/xlink" viewBox="0 0 24 27.5" version="1.1" x="0px" y="0px"><title>voip</title><g stroke="none" stroke-width="1" fill="none" fill-rule="evenodd"><path d="M19.7260764,8.45247274 C18.9183609,4.81856867 16.1527867,2.06531132 11.9782199,2.06531132 C7.80503483,2.06531132 5.07728205,4.81674632 4.28104911,8.44886458 C4.42749862,9.14675832 4.33456359,10.1390106 4.33456359,11.2398817 C4.33456359,13.0948366 4.59842338,14.6414026 3.53632803,14.9910016 C4.17742783,17.0193501 5.65817402,18.6869637 7.76985467,19.2405709 C8.02095224,18.658301 8.59933904,18.2508107 9.27272727,18.2508107 C10.176466,18.2508107 10.9090909,18.9847701 10.9090909,19.8901549 C10.9090909,20.7955398 10.176466,21.5294992 9.27272727,21.5294992 C8.53051955,21.5294992 7.90372359,21.0344627 7.70337221,20.355989 C4.86130658,19.7282655 2.94729166,17.4779807 2.22702379,14.9336033 C0.944141353,14.4947455 -5.19584376e-14,13.007298 -5.19584376e-14,11.2398817 C-5.19584376e-14,9.43399943 0.985685093,7.92040506 2.31126075,7.51900425 C3.41019031,3.29710764 6.73125241,-2.13162821e-14 11.9782199,-2.13162821e-14 C17.2181399,-2.13162821e-14 20.5373246,3.28825658 21.6407389,7.50199735 C22.9896871,7.87589009 24,9.40740602 24,11.2398817 C24,13.3524463 22.6572367,15.0650183 21.0008543,15.0650183 C19.3444719,15.0650183 19.660465,13.3524463 19.660465,11.2398817 C19.660465,10.1409064 19.5749517,9.15017616 19.7260764,8.45247274 Z M12,17.3365772 C10.1749632,17.3365772 8.69547859,15.9934315 8.69547859,14.3365772 L15.3045214,14.3365772 C15.3045214,15.9934315 13.8250368,17.3365772 12,17.3365772 Z M15.5,11 C14.6715729,11 14,10.3284271 14,9.5 C14,8.67157288 14.6715729,8 15.5,8 C16.3284271,8 17,8.67157288 17,9.5 C17,10.3284271 16.3284271,11 15.5,11 Z M8.5,11 C7.67157288,11 7,10.3284271 7,9.5 C7,8.67157288 7.67157288,8 8.5,8 C9.32842712,8 10,8.67157288 10,9.5 C10,10.3284271 9.32842712,11 8.5,11 Z" fill="#000000" fill-rule="nonzero"/></g><text x="0" y="37" fill="#000000" font-size="5px" font-weight="bold" font-family="'Helvetica Neue', Helvetica, Arial-Unicode, Arial, Sans-serif">Created by Roberto Chiaveri</text><text x="0" y="42" fill="#000000" font-size="5px" font-weight="bold" font-family="'Helvetica Neue', Helvetica, Arial-Unicode, Arial, Sans-serif">from the Noun Project</text></svg>